<?xml version="1.0" encoding="UTF-8"?>
<svg id="Layer_1" data-name="Layer 1" xmlns="http://www.w3.org/2000/svg" viewBox="0 0 32 29.8">
  <defs>
    <style>
      .cls-1 {
        fill: #66c4e1;
      }

      .cls-2 {
        fill: #1b7a95;
      }
    </style>
  </defs>
  <path class="cls-1" d="M30.3,7.29c.4-.18.72-.04.71.31l-.14,4.58c-.01.35-.35.77-.75.95l-12.18,5.33c-.4.18-.72.04-.71-.31l.14-4.58c.01-.35.34-.77.75-.95l12.18-5.33Z"/>
  <path class="cls-2" d="M12.06,18.08c.19.4.06.72-.29.72l-4.58-.03c-.35,0-.78-.33-.96-.72L.6,6c-.19-.4-.05-.72.29-.72l4.58.02c.35,0,.78.33.96.72l5.63,12.05Z"/>
  <path class="cls-1" d="M30.08,14.45c.4-.18.72-.04.71.31l-.14,4.58c-.01.35-.35.77-.75.95l-12.18,5.33c-.4.18-.72.04-.71-.31l.14-4.58c.01-.35.34-.77.75-.95l12.18-5.33Z"/>
  <g>
    <path class="cls-2" d="M16.26,17.94l.02-4.58c0-.47.21-.96.56-1.34l-2.79-5.98c-.19-.4-.62-.72-.96-.72l-4.58-.02c-.35,0-.48.32-.29.72l5.63,12.05c.19.4.62.72.96.72h1.7c-.16-.23-.25-.52-.25-.83Z"/>
    <path class="cls-2" d="M19.46,18.79c.07-.01.14-.04.18-.09l-.18.09Z"/>
  </g>
  <path class="cls-2" d="M22.27,9.25l.74-.34-1.34-2.87c-.18-.4-.62-.72-.96-.72l-4.58-.03c-.35,0-.48.32-.29.72l2.4,5.14,4.04-1.89Z"/>
</svg>